<svg xmlns="http://www.w3.org/2000/svg" xmlns:xlink="http://www.w3.org/1999/xlink" viewBox="0,0,256,256" width="96px" height="96px" fill-rule="nonzero"><defs><linearGradient x1="24" y1="10.282" x2="24" y2="42.282" gradientUnits="userSpaceOnUse" id="color-1"><stop offset="0" stop-color="#fba62d"></stop><stop offset="0.174" stop-color="#fc8e2c"></stop><stop offset="0.548" stop-color="#fe602a"></stop><stop offset="0.835" stop-color="#ff4329"></stop><stop offset="1" stop-color="#ff3829"></stop></linearGradient><linearGradient x1="5.712" y1="6.137" x2="26.001" y2="26.426" gradientUnits="userSpaceOnUse" id="color-2"><stop offset="0" stop-color="#faa53d"></stop><stop offset="0.438" stop-color="#e17a2f"></stop><stop offset="0.795" stop-color="#d15d26"></stop><stop offset="1" stop-color="#cb5223"></stop></linearGradient></defs><g transform="translate(-23.04,-23.04) scale(1.18,1.18)"><g fill="none" fill-rule="nonzero" stroke="none" stroke-width="1" stroke-linecap="butt" stroke-linejoin="miter" stroke-miterlimit="10" stroke-dasharray="" stroke-dashoffset="0" font-family="none" font-weight="none" font-size="none" text-anchor="none" style="mix-blend-mode: normal"><g transform="scale(5.33333,5.33333)"><path d="M40,42h-32c-1.1,0 -2,-0.9 -2,-2v-32c0,-1.1 0.9,-2 2,-2h32c1.1,0 2,0.9 2,2v32c0,1.1 -0.9,2 -2,2z" fill="url(#color-1)"></path><path d="M30,30c8.847,-8.848 -3.981,-19 -3.981,-19l-5.005,-5h-13.014c-1.1,0 -2,0.9 -2,2v13.967l4,4c0,0 11.153,12.881 20,4.033z" fill="url(#color-2)"></path><path d="M26.019,11c11.429,7.698 7.732,16.187 7.732,16.187c0,0 3.25,3.634 1.936,6.813c0,0 -1.34,-2.226 -3.588,-2.226c-2.166,0 -3.44,2.226 -7.8,2.226c-9.708,0 -14.299,-8.033 -14.299,-8.033c8.747,5.7 14.719,1.663 14.719,1.663c-3.941,-2.266 -12.719,-13.63 -12.719,-13.63c7.299,6.155 11,8 11,8c-1.882,-1.542 -8,-9 -8,-9c4.224,4.238 13.307,10.378 13.307,10.378c2.384,-6.544 -2.288,-12.378 -2.288,-12.378z" fill="#ffffff"></path></g></g></g></svg>