<svg xmlns="http://www.w3.org/2000/svg" xmlns:xlink="http://www.w3.org/1999/xlink" viewBox="0,0,256,256" width="96px" height="96px" fill-rule="nonzero"><defs><radialGradient cx="23.941" cy="4.41161" r="54.398" gradientUnits="userSpaceOnUse" id="color-1"><stop offset="0.202" stop-color="#27f5f1"></stop><stop offset="0.29" stop-color="#25e2ee"></stop><stop offset="0.468" stop-color="#20b1e7"></stop><stop offset="0.717" stop-color="#1963db"></stop><stop offset="0.857" stop-color="#1434d4"></stop><stop offset="1" stop-color="#0015b5"></stop></radialGradient></defs><g transform="translate(-23.04,-23.04) scale(1.18,1.18)"><g fill="none" fill-rule="nonzero" stroke="none" stroke-width="1" stroke-linecap="butt" stroke-linejoin="miter" stroke-miterlimit="10" stroke-dasharray="" stroke-dashoffset="0" font-family="none" font-weight="none" font-size="none" text-anchor="none" style="mix-blend-mode: normal"><g transform="scale(5.33333,5.33333)"><path d="M34.249,42h-20.498c-4.281,0 -7.751,-3.47 -7.751,-7.751v-10.78l15,-17.469h13.248c4.282,0 7.752,3.47 7.752,7.751v20.497c0,4.282 -3.47,7.752 -7.751,7.752z" fill="url(#color-1)"></path><path d="M21,6l-15,17.469c4.325,5.751 14.813,9.78 21.688,3.468c4,-5 1.688,-13.188 -1.313,-15.875c-1.507,-1.35 -3.311,-3.292 -5.375,-5.062z" fill="#1a5cf9"></path><path d="M21,6l-15,15.683v1.786c5.079,3.953 13.005,5.51 18.563,0.406c4,-5 1.688,-13.188 -1.313,-15.875c-0.637,-0.57 -1.402,-1.265 -2.25,-2z" fill="#21aaf5"></path><path d="M6,18.477v3.206c4.686,1.975 10.315,1.966 14.563,-1.933c3.224,-4.03 2.47,-10.128 0.437,-13.75h-3.15z" fill="#25e0f2"></path><path d="M13.751,6c-4.281,0 -7.751,3.47 -7.751,7.751v4.726c3.476,0.382 7.055,-0.459 9.979,-3.144c2.119,-2.649 2.46,-6.188 1.871,-9.333z" fill="#18ffff"></path><path d="M12.608,14.87c0,0 6.833,10.327 12.578,13.82c-2.174,0.699 -6.894,3.555 -15.124,-1.492c2.096,2.873 5.807,8.635 14.891,8.092c3.183,-0.155 5.124,-1.165 6.91,-1.863c1.786,-0.698 3.494,-0.621 4.969,2.019c0.311,-2.407 0.388,-4.659 -2.096,-7.221c0,0 2.456,-9.363 -8.001,-16.751c2.174,4.348 3.433,6.8 2.411,12.791c-2.329,-1.553 -10.931,-8.48 -12.872,-10.732c1.398,2.485 5.419,7.936 6.816,9.334c-2.484,-1.708 -10.482,-7.997 -10.482,-7.997z" fill="#000000"></path></g></g></g></svg>